<svg width="20" height="22" viewBox="0 0 20 22" fill="none" xmlns="http://www.w3.org/2000/svg">
<g id="Group 4">
<path id="Vector" d="M17.5141 17.5498L15.6739 19.39C15.5816 19.4823 15.4632 19.5323 15.3333 19.5323C15.2034 19.5323 15.0851 19.4823 14.9928 19.39L14.8867 19.4961L14.9928 19.39L13.4199 17.8171C13.0045 17.4017 12.3301 17.4017 11.9148 17.8171L10.3418 19.39L10.3413 19.3906C10.163 19.5708 9.83957 19.5708 9.66132 19.3906L9.66073 19.39L8.0878 17.8171C7.67245 17.4017 6.99805 17.4017 6.5827 17.8171L5.00977 19.39L5.00919 19.3906C4.83092 19.5708 4.5075 19.5708 4.32925 19.3906L4.32867 19.39L2.48585 17.5472L2.48328 4.45279L4.32606 2.61C4.51358 2.42249 4.81964 2.42248 5.00716 2.61L6.5801 4.18293C6.98225 4.58509 7.68407 4.58542 8.08526 4.18286C8.08531 4.18282 8.08535 4.18278 8.0854 4.18273L9.65813 2.61C9.84564 2.42249 10.1517 2.42248 10.3392 2.61L11.9122 4.18293C12.3144 4.58513 13.0163 4.58542 13.4175 4.18273L14.9902 2.61C15.1777 2.42249 15.4838 2.42248 15.6713 2.61L17.5141 4.4528V17.5498ZM15.3333 0.85C14.76 0.85 14.2189 1.07264 13.8142 1.48151C13.8141 1.48158 13.814 1.48165 13.814 1.48172L12.6667 2.629L11.5188 1.48117C11.1147 1.07703 10.5728 0.85 10 0.85C9.4267 0.85 8.88571 1.0726 8.48094 1.4814C8.48083 1.4815 8.48073 1.48161 8.48062 1.48172L7.33333 2.629L6.1855 1.48117C5.78136 1.07703 5.23943 0.85 4.66667 0.85C4.09335 0.85 3.55233 1.07261 3.14755 1.48145C3.14747 1.48154 3.14738 1.48163 3.14729 1.48172L1.48117 3.14783C1.07703 3.55197 0.85 4.09391 0.85 4.66667V17.3333C0.85 17.9066 1.0726 18.4476 1.48142 18.8524C1.48152 18.8525 1.48162 18.8526 1.48172 18.8527L3.14783 20.5188C3.55197 20.923 4.09391 21.15 4.66667 21.15C5.23996 21.15 5.78095 20.9274 6.18572 20.5186C6.18583 20.5185 6.18594 20.5184 6.18605 20.5183L7.33333 19.371L8.48117 20.5188C8.88531 20.923 9.42724 21.15 10 21.15C10.5734 21.15 11.1145 20.9273 11.5193 20.5184C11.5193 20.5183 11.5193 20.5183 11.5194 20.5183L12.6667 19.371L13.8145 20.5188C14.2186 20.923 14.7606 21.15 15.3333 21.15C15.9066 21.15 16.4477 20.9274 16.8524 20.5186C16.8525 20.5185 16.8526 20.5184 16.8527 20.5183L18.5188 18.8522C18.923 18.448 19.15 17.9061 19.15 17.3333V4.66667C19.15 4.09338 18.9274 3.55239 18.5186 3.14762C18.5185 3.14751 18.5184 3.1474 18.5183 3.14729L16.8522 1.48117C16.448 1.07703 15.9061 0.85 15.3333 0.85Z" fill="#7C7C7C" stroke="#7C7C7C" stroke-width="0.3"/>
<path id="Vector_2" d="M12.5436 8.65892L12.5293 8.64466L12.4232 8.75074L9.3327 11.8413L7.5755 10.0841C7.42012 9.9287 7.21488 9.84743 6.99936 9.84743C6.78271 9.84743 6.57554 9.93337 6.4238 10.0835L6.42379 10.0835L6.42323 10.0841C6.10443 10.4029 6.104 10.9211 6.42336 11.239C6.42341 11.2391 6.42345 11.2391 6.4235 11.2392L8.19926 13.0149C8.50137 13.3171 8.90695 13.482 9.33526 13.482C9.76539 13.482 10.1666 13.3167 10.4708 13.0154L10.4713 13.0149L13.5806 9.90558C13.736 9.7502 13.8173 9.54496 13.8173 9.32944C13.8173 9.11278 13.7313 8.90562 13.5812 8.75387L13.5806 8.75331C13.4279 8.60053 13.2095 8.53164 13.0027 8.53164C12.8449 8.53164 12.6803 8.57179 12.5436 8.65892Z" fill="#7C7C7C" stroke="#7C7C7C" stroke-width="0.3"/>
</g>
</svg>
