<svg width="19" height="22" viewBox="0 0 19 22" fill="none" xmlns="http://www.w3.org/2000/svg">
<mask id="path-1-outside-1_1_7961" maskUnits="userSpaceOnUse" x="0" y="-0.404297" width="19" height="22" fill="black">
<rect fill="white" y="-0.404297" width="19" height="22"/>
<path fill-rule="evenodd" clip-rule="evenodd" d="M9.5 0.595703C9.39346 0.595822 9.28886 0.624257 9.19692 0.678096C7.41675 1.71805 5.39252 2.26653 3.3311 2.26764C2.78084 2.26764 2.23235 2.22087 1.68989 2.1407C1.60439 2.12793 1.51714 2.13375 1.43409 2.15777C1.35105 2.18179 1.27416 2.22344 1.20867 2.27987C1.14319 2.33631 1.09065 2.40621 1.05464 2.4848C1.01862 2.56339 0.999988 2.64883 1 2.73528V12.5663C1 15.108 3.16564 17.1561 5.19945 18.6198C7.23326 20.0838 9.25616 20.9794 9.25616 20.9794C9.33293 21.0135 9.416 21.0311 9.5 21.0311C9.584 21.0311 9.66707 21.0135 9.74384 20.9794C9.74384 20.9794 11.7667 20.0838 13.8005 18.6198C15.8344 17.1561 18 15.108 18 12.5663V2.73528C18 2.64885 17.9814 2.56344 17.9454 2.48487C17.9094 2.40629 17.8569 2.33641 17.7914 2.27997C17.7259 2.22354 17.6491 2.18188 17.5661 2.15785C17.483 2.13382 17.3958 2.12797 17.3103 2.1407C16.7668 2.22087 16.2185 2.26542 15.6691 2.26764C13.6077 2.26742 11.5835 1.71805 9.80308 0.678096C9.71114 0.624257 9.60654 0.595821 9.5 0.595703ZM9.5 1.88685C11.3897 2.92302 13.5117 3.46927 15.6711 3.46927C16.0461 3.46704 16.4209 3.44701 16.7941 3.41359V12.5663C16.7941 14.3816 15.0102 16.2654 13.0946 17.6442C11.5726 18.7399 10.0603 19.4979 9.49621 19.7667C8.93214 19.4979 7.41987 18.7399 5.8978 17.6442C3.98224 16.2654 2.19828 14.3816 2.19828 12.5663V3.41337C2.57151 3.44899 2.94607 3.46682 3.32063 3.46905C5.47959 3.46816 7.60158 2.92279 9.49131 1.88663L9.5 1.88685ZM13.4255 7.43267C13.3466 7.43514 13.269 7.45312 13.1971 7.4856C13.1251 7.51807 13.0603 7.5644 13.0062 7.62194L8.77404 12.126L6.48814 9.61946C6.38088 9.50159 6.23119 9.43116 6.072 9.42364C5.91282 9.41612 5.75716 9.47213 5.63926 9.57936C5.5214 9.68663 5.45096 9.83631 5.44344 9.9955C5.43592 10.1547 5.49194 10.3104 5.59916 10.4282L8.32241 13.4147C8.37869 13.4755 8.44693 13.524 8.52284 13.5572C8.59876 13.5904 8.68071 13.6075 8.76356 13.6075C8.84641 13.6075 8.92836 13.5904 9.00428 13.5572C9.08019 13.524 9.14843 13.4755 9.2047 13.4147L13.8814 8.43764C13.9354 8.3801 13.9776 8.31247 14.0055 8.23861C14.0335 8.16476 14.0466 8.08613 14.0441 8.00722C14.0416 7.9283 14.0236 7.85065 13.9911 7.77869C13.9586 7.70674 13.9122 7.64189 13.8547 7.58786C13.7385 7.47878 13.5837 7.42031 13.4244 7.4253L13.4255 7.43267Z"/>
</mask>
<path fill-rule="evenodd" clip-rule="evenodd" d="M9.5 0.595703C9.39346 0.595822 9.28886 0.624257 9.19692 0.678096C7.41675 1.71805 5.39252 2.26653 3.3311 2.26764C2.78084 2.26764 2.23235 2.22087 1.68989 2.1407C1.60439 2.12793 1.51714 2.13375 1.43409 2.15777C1.35105 2.18179 1.27416 2.22344 1.20867 2.27987C1.14319 2.33631 1.09065 2.40621 1.05464 2.4848C1.01862 2.56339 0.999988 2.64883 1 2.73528V12.5663C1 15.108 3.16564 17.1561 5.19945 18.6198C7.23326 20.0838 9.25616 20.9794 9.25616 20.9794C9.33293 21.0135 9.416 21.0311 9.5 21.0311C9.584 21.0311 9.66707 21.0135 9.74384 20.9794C9.74384 20.9794 11.7667 20.0838 13.8005 18.6198C15.8344 17.1561 18 15.108 18 12.5663V2.73528C18 2.64885 17.9814 2.56344 17.9454 2.48487C17.9094 2.40629 17.8569 2.33641 17.7914 2.27997C17.7259 2.22354 17.6491 2.18188 17.5661 2.15785C17.483 2.13382 17.3958 2.12797 17.3103 2.1407C16.7668 2.22087 16.2185 2.26542 15.6691 2.26764C13.6077 2.26742 11.5835 1.71805 9.80308 0.678096C9.71114 0.624257 9.60654 0.595821 9.5 0.595703ZM9.5 1.88685C11.3897 2.92302 13.5117 3.46927 15.6711 3.46927C16.0461 3.46704 16.4209 3.44701 16.7941 3.41359V12.5663C16.7941 14.3816 15.0102 16.2654 13.0946 17.6442C11.5726 18.7399 10.0603 19.4979 9.49621 19.7667C8.93214 19.4979 7.41987 18.7399 5.8978 17.6442C3.98224 16.2654 2.19828 14.3816 2.19828 12.5663V3.41337C2.57151 3.44899 2.94607 3.46682 3.32063 3.46905C5.47959 3.46816 7.60158 2.92279 9.49131 1.88663L9.5 1.88685ZM13.4255 7.43267C13.3466 7.43514 13.269 7.45312 13.1971 7.4856C13.1251 7.51807 13.0603 7.5644 13.0062 7.62194L8.77404 12.126L6.48814 9.61946C6.38088 9.50159 6.23119 9.43116 6.072 9.42364C5.91282 9.41612 5.75716 9.47213 5.63926 9.57936C5.5214 9.68663 5.45096 9.83631 5.44344 9.9955C5.43592 10.1547 5.49194 10.3104 5.59916 10.4282L8.32241 13.4147C8.37869 13.4755 8.44693 13.524 8.52284 13.5572C8.59876 13.5904 8.68071 13.6075 8.76356 13.6075C8.84641 13.6075 8.92836 13.5904 9.00428 13.5572C9.08019 13.524 9.14843 13.4755 9.2047 13.4147L13.8814 8.43764C13.9354 8.3801 13.9776 8.31247 14.0055 8.23861C14.0335 8.16476 14.0466 8.08613 14.0441 8.00722C14.0416 7.9283 14.0236 7.85065 13.9911 7.77869C13.9586 7.70674 13.9122 7.64189 13.8547 7.58786C13.7385 7.47878 13.5837 7.42031 13.4244 7.4253L13.4255 7.43267Z" fill="#7C7C7C"/>
<path fill-rule="evenodd" clip-rule="evenodd" d="M9.5 0.595703C9.39346 0.595822 9.28886 0.624257 9.19692 0.678096C7.41675 1.71805 5.39252 2.26653 3.3311 2.26764C2.78084 2.26764 2.23235 2.22087 1.68989 2.1407C1.60439 2.12793 1.51714 2.13375 1.43409 2.15777C1.35105 2.18179 1.27416 2.22344 1.20867 2.27987C1.14319 2.33631 1.09065 2.40621 1.05464 2.4848C1.01862 2.56339 0.999988 2.64883 1 2.73528V12.5663C1 15.108 3.16564 17.1561 5.19945 18.6198C7.23326 20.0838 9.25616 20.9794 9.25616 20.9794C9.33293 21.0135 9.416 21.0311 9.5 21.0311C9.584 21.0311 9.66707 21.0135 9.74384 20.9794C9.74384 20.9794 11.7667 20.0838 13.8005 18.6198C15.8344 17.1561 18 15.108 18 12.5663V2.73528C18 2.64885 17.9814 2.56344 17.9454 2.48487C17.9094 2.40629 17.8569 2.33641 17.7914 2.27997C17.7259 2.22354 17.6491 2.18188 17.5661 2.15785C17.483 2.13382 17.3958 2.12797 17.3103 2.1407C16.7668 2.22087 16.2185 2.26542 15.6691 2.26764C13.6077 2.26742 11.5835 1.71805 9.80308 0.678096C9.71114 0.624257 9.60654 0.595821 9.5 0.595703ZM9.5 1.88685C11.3897 2.92302 13.5117 3.46927 15.6711 3.46927C16.0461 3.46704 16.4209 3.44701 16.7941 3.41359V12.5663C16.7941 14.3816 15.0102 16.2654 13.0946 17.6442C11.5726 18.7399 10.0603 19.4979 9.49621 19.7667C8.93214 19.4979 7.41987 18.7399 5.8978 17.6442C3.98224 16.2654 2.19828 14.3816 2.19828 12.5663V3.41337C2.57151 3.44899 2.94607 3.46682 3.32063 3.46905C5.47959 3.46816 7.60158 2.92279 9.49131 1.88663L9.5 1.88685ZM13.4255 7.43267C13.3466 7.43514 13.269 7.45312 13.1971 7.4856C13.1251 7.51807 13.0603 7.5644 13.0062 7.62194L8.77404 12.126L6.48814 9.61946C6.38088 9.50159 6.23119 9.43116 6.072 9.42364C5.91282 9.41612 5.75716 9.47213 5.63926 9.57936C5.5214 9.68663 5.45096 9.83631 5.44344 9.9955C5.43592 10.1547 5.49194 10.3104 5.59916 10.4282L8.32241 13.4147C8.37869 13.4755 8.44693 13.524 8.52284 13.5572C8.59876 13.5904 8.68071 13.6075 8.76356 13.6075C8.84641 13.6075 8.92836 13.5904 9.00428 13.5572C9.08019 13.524 9.14843 13.4755 9.2047 13.4147L13.8814 8.43764C13.9354 8.3801 13.9776 8.31247 14.0055 8.23861C14.0335 8.16476 14.0466 8.08613 14.0441 8.00722C14.0416 7.9283 14.0236 7.85065 13.9911 7.77869C13.9586 7.70674 13.9122 7.64189 13.8547 7.58786C13.7385 7.47878 13.5837 7.42031 13.4244 7.4253L13.4255 7.43267Z" stroke="#7C7C7C" stroke-width="0.8" mask="url(#path-1-outside-1_1_7961)"/>
</svg>
