<svg width="226" height="125" viewBox="0 0 226 125" fill="none" xmlns="http://www.w3.org/2000/svg">
<path d="M105.436 119.404C137.923 119.404 164.258 104.198 164.258 85.441C164.258 66.684 137.923 51.4785 105.436 51.4785C72.949 51.4785 46.6133 66.684 46.6133 85.441C46.6133 104.198 72.949 119.404 105.436 119.404Z" fill="#F5F5F5"/>
<path d="M118.985 97.6583L100.16 86.7858L121.678 74.3633L140.505 85.2333L118.985 97.6583Z" fill="#E0E0E0"/>
<path d="M67.7266 94.296L92.0066 108.314L112.372 96.5585L88.0916 82.541L67.7266 94.296Z" fill="#E0E0E0"/>
<path d="M139.64 77.5C139.603 76.8675 139.518 76.11 139.415 75.23C139.033 71.89 138.51 67.315 139.895 62.9325C140.738 60.265 142.768 57.1025 145.938 56.225C146.643 56.03 148.348 55.7425 149.003 57.255C149.095 57.4735 149.15 57.7059 149.165 57.9425C149.233 58.9025 148.8 59.75 148.32 60.5225C147.768 61.42 147.128 62.2725 146.508 63.1025C145.923 63.8875 145.315 64.6975 144.785 65.5375C144.213 66.4502 143.711 67.4055 143.285 68.395L143.083 68.3075C143.508 67.308 144.009 66.3427 144.583 65.42C145.115 64.5725 145.725 63.7575 146.315 62.97C146.93 62.145 147.565 61.295 148.115 60.4075C148.575 59.6575 148.99 58.855 148.928 57.9575C148.914 57.7458 148.865 57.5379 148.783 57.3425C148.198 55.99 146.628 56.26 145.98 56.4375C142.895 57.2925 140.913 60.3875 140.088 62.9975C138.718 67.3375 139.238 71.885 139.618 75.205C139.718 76.0875 139.805 76.85 139.843 77.4875L139.64 77.5Z" fill="white"/>
<path d="M139.866 81.1358C139.849 81.1382 139.832 81.1382 139.816 81.1358C139.768 81.1265 139.723 81.106 139.684 81.076C139.645 81.0461 139.614 81.0074 139.593 80.9633C139.55 80.8395 139.55 80.7046 139.593 80.5808C139.629 80.3412 139.629 80.0978 139.593 79.8583C139.593 79.7233 139.571 79.5808 139.571 79.4533V77.9008C139.77 75.112 140.588 72.4024 141.963 69.9683C143.183 67.8458 144.533 66.4333 146.213 65.5183C147.119 65.0207 148.112 64.7024 149.138 64.5808C150.044 64.4807 150.955 64.7213 151.693 65.2558C152.456 65.8583 152.798 66.8908 152.511 67.7083C152.308 68.2808 151.846 68.7083 151.373 69.0958C150.531 69.7833 149.611 70.3983 148.723 70.9933C147.986 71.4933 147.223 71.9933 146.511 72.5433C144.331 74.2258 142.502 76.3195 141.128 78.7058C140.903 79.0933 140.691 79.4933 140.496 79.8933L140.416 80.0508C140.338 80.1936 140.269 80.3414 140.211 80.4933C140.198 80.5258 140.186 80.5933 140.168 80.6708C140.156 80.8133 140.11 80.9511 140.036 81.0733C139.989 81.1146 139.928 81.1369 139.866 81.1358ZM149.498 64.7883C149.386 64.7883 149.273 64.7883 149.158 64.8033C148.162 64.9195 147.199 65.2286 146.321 65.7133C144.681 66.6058 143.358 67.9933 142.158 70.0783C140.801 72.4822 139.994 75.1573 139.796 77.9108V79.4483C139.796 79.5683 139.796 79.6983 139.818 79.8358C139.858 80.0976 139.858 80.364 139.818 80.6258C139.791 80.707 139.791 80.7946 139.818 80.8758C139.825 80.8884 139.834 80.8995 139.845 80.9082C139.856 80.9168 139.869 80.9228 139.883 80.9258C139.928 80.8334 139.958 80.7348 139.973 80.6333C139.985 80.5639 140.002 80.4954 140.023 80.4283C140.084 80.2677 140.156 80.1116 140.238 79.9608L140.316 79.8058C140.516 79.4008 140.731 78.9983 140.956 78.6058C141.423 77.7969 141.942 77.0186 142.508 76.2758C143.628 74.8124 144.935 73.5021 146.396 72.3783C147.116 71.8283 147.881 71.3158 148.621 70.8208C149.506 70.2283 150.418 69.6158 151.256 68.9358C151.701 68.5733 152.138 68.1658 152.323 67.6458C152.573 66.9133 152.266 65.9858 151.573 65.4383C150.975 64.9925 150.244 64.7633 149.498 64.7883Z" fill="white"/>
<path d="M139.678 78.9997H139.65C139.636 78.9965 139.623 78.9905 139.611 78.982C139.599 78.9736 139.589 78.9628 139.582 78.9505C139.574 78.9381 139.57 78.9244 139.567 78.9101C139.565 78.8958 139.566 78.8812 139.57 78.8672C141.633 70.6422 147.335 66.9722 150.38 66.0997C150.408 66.092 150.438 66.0955 150.463 66.1095C150.488 66.1236 150.507 66.147 150.515 66.1747C150.523 66.2029 150.519 66.233 150.505 66.2587C150.491 66.2843 150.468 66.3035 150.44 66.3122C147.44 67.1697 141.823 70.7922 139.785 78.9197C139.778 78.9428 139.764 78.9631 139.744 78.9775C139.725 78.9919 139.702 78.9997 139.678 78.9997Z" fill="white"/>
<path d="M139.665 72.2498C139.636 72.2472 139.609 72.2332 139.589 72.2108C139.57 72.1883 139.561 72.1592 139.563 72.1298C140.22 63.2473 146.03 58.3798 146.69 57.8573C146.701 57.8479 146.714 57.8408 146.728 57.8366C146.742 57.8324 146.757 57.8311 146.772 57.8327C146.786 57.8343 146.8 57.8389 146.813 57.8462C146.825 57.8534 146.836 57.8631 146.845 57.8748C146.854 57.8861 146.861 57.8991 146.865 57.913C146.869 57.9269 146.87 57.9415 146.869 57.9559C146.867 57.9703 146.863 57.9842 146.856 57.9969C146.849 58.0096 146.839 58.0208 146.828 58.0298C146.175 58.5473 140.433 63.3573 139.785 72.1473C139.782 72.1764 139.768 72.2033 139.746 72.2223C139.723 72.2414 139.695 72.2512 139.665 72.2498Z" fill="white"/>
<path d="M138.978 41.2726L125.075 33.2501C124.968 33.1729 124.842 33.1256 124.71 33.1129C124.578 33.1001 124.446 33.1225 124.325 33.1776L123.325 33.7551C123.215 33.8317 123.128 33.9363 123.072 34.0581C123.016 34.1798 122.994 34.3144 123.008 34.4476V72.5001C123.028 72.8709 123.136 73.2316 123.322 73.553C123.508 73.8745 123.767 74.1475 124.078 74.3501L137.978 82.3626C138.085 82.4402 138.211 82.488 138.343 82.5012C138.474 82.5144 138.607 82.4924 138.728 82.4376L139.728 81.8576C139.837 81.7807 139.923 81.6762 139.978 81.555C140.033 81.4337 140.054 81.3 140.04 81.1676V43.1226C140.021 42.7525 139.915 42.3921 139.73 42.0707C139.546 41.7493 139.288 41.4759 138.978 41.2726Z" fill="#263238"/>
<path d="M126.002 73.1523L125.002 73.7299V76.8948C125.007 76.9875 125.034 77.0777 125.08 77.1581C125.127 77.2385 125.192 77.3067 125.269 77.3573L125.737 77.6273C125.82 77.6693 125.912 77.6912 126.004 77.6912C126.097 77.6912 126.189 77.6693 126.272 77.6273L126.739 77.3573C126.906 77.2501 127.034 77.0936 127.107 76.9099L128.009 74.3098L126.002 73.1523Z" fill="#263238"/>
<path d="M125.002 76.8935C125.007 76.9862 125.034 77.0764 125.08 77.1568C125.127 77.2371 125.192 77.3054 125.269 77.356L125.737 77.626C125.769 77.6456 125.806 77.6575 125.843 77.6611C125.881 77.6646 125.919 77.6595 125.954 77.6463C125.989 77.6331 126.021 77.612 126.047 77.5847C126.073 77.5573 126.093 77.5245 126.104 77.4885L127.002 74.886L125.002 73.7285V76.8935Z" fill="#37474F"/>
<path d="M136.033 78.9238L135.033 79.5038V82.6663C135.038 82.7592 135.064 82.8497 135.11 82.9305C135.156 83.0112 135.221 83.08 135.298 83.1313L135.768 83.4013C135.851 83.4433 135.942 83.4651 136.034 83.4651C136.127 83.4651 136.218 83.4433 136.301 83.4013L136.771 83.1313C136.937 83.024 137.065 82.8676 137.138 82.6838L138.038 80.0813L136.033 78.9238Z" fill="#263238"/>
<path d="M135.033 82.6664C135.038 82.7593 135.064 82.8498 135.11 82.9305C135.156 83.0113 135.221 83.0801 135.298 83.1314L135.768 83.4014C135.801 83.421 135.837 83.4329 135.874 83.4365C135.912 83.44 135.95 83.4349 135.985 83.4217C136.021 83.4085 136.053 83.3874 136.079 83.3601C136.105 83.3327 136.124 83.2999 136.136 83.2639L137.038 80.6614L135.038 79.5039L135.033 82.6664Z" fill="#37474F"/>
<path d="M124.143 33.858L138.043 41.858C138.354 42.0611 138.613 42.3347 138.799 42.6565C138.985 42.9784 139.092 43.3394 139.113 43.7105V81.763C139.139 81.8967 139.123 82.0353 139.067 82.1593C139.01 82.2834 138.917 82.3867 138.799 82.4548C138.681 82.5229 138.544 82.5524 138.409 82.539C138.273 82.5257 138.145 82.4703 138.043 82.3805L124.143 74.3655C123.832 74.1628 123.573 73.8896 123.388 73.5682C123.202 73.2468 123.095 72.8861 123.075 72.5155V34.473C123.048 34.3396 123.064 34.2012 123.12 34.0772C123.177 33.9532 123.27 33.85 123.388 33.7821C123.506 33.7142 123.642 33.685 123.778 33.6986C123.913 33.7122 124.041 33.768 124.143 33.858Z" fill="#37474F"/>
<path d="M103.957 85.8692L118.992 94.5492L140.042 82.3967L139.04 81.8167L124.005 73.1367L103.957 84.7117V85.8692Z" fill="#455A64"/>
<path d="M118.992 94.5483V93.3908L140.042 81.2383V82.3958L118.992 94.5483Z" fill="#263238"/>
<path d="M119.086 92.8644L118.934 92.7619C121.601 88.7244 121.584 81.7495 121.366 79.9995C121.349 79.882 121.336 79.8095 121.334 79.782L121.516 79.752C121.516 79.807 121.536 79.8719 121.546 79.9494C121.741 81.1869 122.844 87.9094 124.149 89.9494L123.994 90.0495C122.961 88.447 122.079 84.122 121.636 81.627C121.664 84.4595 121.251 89.6069 119.086 92.8644Z" fill="#FAFAFA"/>
<path d="M127.866 86.7006C127.639 86.6331 122.324 85.0231 121.834 82.6781L122.016 82.6406C122.481 84.8781 127.864 86.5081 127.919 86.5256L127.866 86.7006Z" fill="#FAFAFA"/>
<path d="M122.501 85.7479L122.366 85.1754C122.348 85.0703 122.294 84.9745 122.214 84.9036C122.134 84.8328 122.033 84.7912 121.926 84.7854C121.838 84.7726 121.748 84.787 121.669 84.8268C121.589 84.8666 121.524 84.9298 121.481 85.0079L121.309 84.9354C121.366 84.8211 121.458 84.7274 121.572 84.6674C121.685 84.6074 121.814 84.584 121.941 84.6004C122.033 84.6062 122.123 84.6315 122.204 84.6746C122.286 84.7177 122.357 84.7776 122.414 84.8504C122.444 84.6134 122.565 84.3973 122.751 84.2479C122.822 84.211 122.901 84.1929 122.981 84.1956C123.06 84.1982 123.138 84.2214 123.206 84.2629L123.124 84.4279C123.082 84.4011 123.034 84.3854 122.985 84.3824C122.935 84.3793 122.886 84.389 122.841 84.4104C122.629 84.5304 122.546 84.9929 122.534 85.1604L122.501 85.7479Z" fill="#FAFAFA"/>
<path d="M123.026 87.6568L122.861 87.1368C122.673 86.5493 122.361 86.2118 121.991 86.1893C121.836 86.1863 121.684 86.2285 121.553 86.3106C121.422 86.3928 121.318 86.5113 121.253 86.6518L121.086 86.5718C121.165 86.3963 121.294 86.2482 121.458 86.1462C121.621 86.0443 121.811 85.9932 122.003 85.9993C122.226 86.0118 122.608 86.1318 122.893 86.7118C122.956 86.2543 123.143 85.5193 123.626 85.2118C123.799 85.1169 123.994 85.0682 124.191 85.0704C124.389 85.0726 124.582 85.1256 124.753 85.2243L124.676 85.3918C124.533 85.3071 124.37 85.2606 124.204 85.2566C124.038 85.2527 123.873 85.2915 123.726 85.3693C123.083 85.7693 123.041 87.0918 123.041 87.1068L123.026 87.6568Z" fill="#FAFAFA"/>
<path d="M120.767 88.926L120.602 88.841C120.972 88.1285 121.784 87.616 122.489 87.651C122.639 87.6527 122.786 87.688 122.92 87.7542C123.054 87.8204 123.172 87.9158 123.264 88.0335C123.332 87.6738 123.472 87.3315 123.676 87.0273C123.879 86.7231 124.142 86.4633 124.449 86.2635C124.778 86.0448 125.158 85.9146 125.552 85.8853C125.946 85.8559 126.341 85.9285 126.699 86.096L126.627 86.2635C126.297 86.1109 125.934 86.045 125.571 86.0721C125.209 86.0992 124.86 86.2185 124.557 86.4185C124.232 86.6286 123.962 86.9117 123.766 87.2451C123.571 87.5784 123.456 87.9529 123.432 88.3385V88.811L123.257 88.371C123.199 88.2146 123.094 88.0796 122.958 87.984C122.821 87.8884 122.658 87.8368 122.492 87.836C121.844 87.8035 121.107 88.2735 120.767 88.926Z" fill="#FAFAFA"/>
<path d="M119.752 91.6867L119.59 91.5967C119.815 91.1867 121.012 89.1267 122.43 88.7542C122.63 88.6969 122.84 88.6826 123.046 88.7124C123.252 88.7421 123.449 88.8152 123.625 88.9267L123.53 89.0842C123.375 88.9864 123.201 88.9222 123.02 88.8959C122.838 88.8696 122.654 88.8818 122.477 88.9317C121.437 89.2067 120.362 90.5867 119.752 91.6867Z" fill="#FAFAFA"/>
<path d="M138.037 69.6644V70.8219L118.992 81.8169L103.957 73.1369V71.9794L123.002 60.9844L138.037 69.6644Z" fill="#263238"/>
<path d="M138.037 69.6644L118.992 80.6594L103.957 71.9794L123.002 60.9844L138.037 69.6644Z" fill="#455A64"/>
<path d="M138.037 56.9345V58.0895L118.992 69.087L103.957 60.4045V59.2495L123.002 48.252L138.037 56.9345Z" fill="#263238"/>
<path d="M138.037 56.9345L118.992 67.9295L103.957 59.2495L123.002 48.252L138.037 56.9345Z" fill="#455A64"/>
<path d="M118.926 52.8306L105.026 44.8181C104.919 44.7405 104.793 44.6927 104.661 44.6795C104.53 44.6663 104.397 44.6883 104.276 44.7431C104.096 44.8456 103.456 45.2181 103.276 45.3206C103.167 45.3974 103.08 45.5021 103.024 45.6239C102.969 45.7457 102.947 45.88 102.961 46.0131V84.0556C102.982 84.4263 103.089 84.787 103.275 85.1085C103.461 85.4299 103.72 85.703 104.031 85.9056L117.931 93.9206C118.038 93.9981 118.164 94.046 118.296 94.0591C118.428 94.0723 118.561 94.0504 118.681 93.9956C118.861 93.8906 119.506 93.5206 119.681 93.4131C119.791 93.337 119.879 93.233 119.935 93.1116C119.991 92.9903 120.014 92.8562 120.001 92.7231V54.6831C119.981 54.3114 119.872 53.9499 119.686 53.628C119.499 53.3061 119.239 53.0328 118.926 52.8306Z" fill="#263238"/>
<path opacity="0.2" d="M118.991 58.6702L119.996 58.0902V54.6152L118.988 55.1952L118.991 58.6702Z" fill="black"/>
<path opacity="0.2" d="M139.04 47.0955L140.045 46.518V43.043L139.037 43.623L139.04 47.0955Z" fill="black"/>
<path d="M105.959 84.7109L104.959 85.2884V88.4534C104.964 88.5461 104.991 88.6363 105.037 88.7167C105.084 88.7971 105.149 88.8653 105.226 88.9159L105.694 89.1859C105.777 89.2279 105.869 89.2498 105.961 89.2498C106.054 89.2498 106.146 89.2279 106.229 89.1859L106.696 88.9159C106.862 88.8091 106.99 88.6536 107.064 88.4709L107.966 85.8684L105.959 84.7109Z" fill="#263238"/>
<path d="M104.957 88.4541C104.962 88.5468 104.989 88.637 105.035 88.7173C105.082 88.7977 105.147 88.866 105.225 88.9166L105.692 89.1866C105.724 89.2061 105.761 89.2181 105.798 89.2216C105.836 89.2251 105.874 89.2201 105.909 89.2068C105.944 89.1936 105.976 89.1725 106.002 89.1452C106.028 89.1179 106.048 89.085 106.06 89.0491L106.962 86.4466L104.962 85.2891L104.957 88.4541Z" fill="#37474F"/>
<path d="M115.982 90.498L114.982 91.0755V94.2405C114.987 94.3331 115.013 94.4232 115.059 94.5036C115.106 94.584 115.17 94.6523 115.247 94.703L115.717 94.973C115.8 95.015 115.891 95.0368 115.984 95.0368C116.076 95.0368 116.167 95.015 116.25 94.973L116.72 94.703C116.885 94.5954 117.013 94.4402 117.087 94.258L117.987 91.6555L115.982 90.498Z" fill="#263238"/>
<path d="M114.982 94.2275C114.987 94.32 115.013 94.4102 115.059 94.4905C115.106 94.5709 115.17 94.6393 115.247 94.69L115.717 94.96C115.75 94.9795 115.786 94.9915 115.824 94.995C115.861 94.9986 115.899 94.9935 115.934 94.9803C115.97 94.967 116.002 94.946 116.028 94.9186C116.054 94.8913 116.073 94.8584 116.085 94.8225L116.985 92.22L114.985 91.0625L114.982 94.2275Z" fill="#37474F"/>
<path d="M104.02 45.3971L117.922 53.4096C118.233 53.6128 118.492 53.8865 118.677 54.2083C118.863 54.5302 118.97 54.8912 118.99 55.2621V94.5471C118.99 94.5471 118.217 94.0896 117.922 93.9196L104.022 85.9046C103.711 85.702 103.452 85.4289 103.266 85.1075C103.08 84.7861 102.973 84.4253 102.952 84.0546V46.0121C102.925 45.8787 102.941 45.7402 102.997 45.6163C103.053 45.4923 103.147 45.3891 103.265 45.3212C103.383 45.2532 103.519 45.224 103.655 45.2376C103.79 45.2513 103.918 45.307 104.02 45.3971Z" fill="#37474F"/>
<path opacity="0.2" d="M117.922 53.4096L104.02 45.3971C103.918 45.307 103.79 45.2513 103.655 45.2376C103.519 45.224 103.383 45.2532 103.265 45.3212C103.147 45.3891 103.053 45.4923 102.997 45.6163C102.941 45.7402 102.925 45.8787 102.952 46.0121V49.4096L118.99 58.6596V55.2621C118.97 54.8912 118.863 54.5302 118.677 54.2083C118.492 53.8865 118.233 53.6128 117.922 53.4096Z" fill="black"/>
<path d="M137.034 57.0263C137.01 57.0257 136.987 57.0158 136.97 56.9986C136.952 56.9813 136.942 56.9582 136.942 56.9338V45.5188L126.054 51.8038C126.044 51.8105 126.033 51.8149 126.021 51.8168C126.009 51.8188 125.996 51.8182 125.985 51.8151C125.973 51.8121 125.962 51.8066 125.952 51.7991C125.943 51.7915 125.935 51.7821 125.929 51.7713C125.923 51.7609 125.919 51.7492 125.917 51.7371C125.915 51.725 125.916 51.7127 125.919 51.7008C125.922 51.689 125.927 51.6778 125.935 51.668C125.942 51.6583 125.951 51.65 125.962 51.6438L137.002 45.2788C137.016 45.2702 137.032 45.2656 137.048 45.2656C137.064 45.2656 137.08 45.2702 137.094 45.2788C137.108 45.2871 137.119 45.2988 137.127 45.3129C137.135 45.3269 137.139 45.3428 137.139 45.3588V56.9338C137.139 56.9471 137.137 56.9603 137.131 56.9724C137.126 56.9845 137.118 56.9953 137.108 57.0041C137.098 57.0129 137.086 57.0194 137.074 57.0232C137.061 57.0271 137.047 57.0281 137.034 57.0263Z" fill="#FAFAFA"/>
<path d="M135.029 54.1331H135.001C134.978 54.1278 134.957 54.1132 134.944 54.0926C134.931 54.072 134.926 54.047 134.931 54.0231L136.796 45.9456L133.096 52.3531C133.091 52.3638 133.083 52.3732 133.073 52.3808C133.064 52.3884 133.053 52.394 133.041 52.3973C133.03 52.4005 133.018 52.4014 133.005 52.3999C132.993 52.3983 132.982 52.3943 132.971 52.3881C132.961 52.3822 132.951 52.3741 132.944 52.3644C132.936 52.3547 132.93 52.3436 132.927 52.3318C132.924 52.3199 132.923 52.3075 132.925 52.2953C132.926 52.2831 132.93 52.2713 132.936 52.2606L136.936 45.3156C136.948 45.2966 136.966 45.2821 136.987 45.2748C137.008 45.2675 137.031 45.2678 137.051 45.2757C137.072 45.284 137.089 45.2995 137.099 45.3192C137.109 45.3389 137.112 45.3616 137.106 45.3831L135.106 54.0656C135.102 54.0835 135.092 54.0995 135.078 54.1115C135.064 54.1236 135.047 54.1312 135.029 54.1331Z" fill="#FAFAFA"/>
<path d="M131.022 51.2496C131.009 51.2496 130.997 51.247 130.985 51.2418C130.973 51.2366 130.963 51.2291 130.954 51.2196C130.937 51.2023 130.928 51.1789 130.928 51.1546C130.928 51.1302 130.937 51.1069 130.954 51.0896L136.969 45.3021C136.987 45.285 137.01 45.2754 137.034 45.2754C137.059 45.2754 137.082 45.285 137.099 45.3021C137.117 45.3198 137.126 45.3436 137.126 45.3683C137.126 45.3931 137.117 45.4168 137.099 45.4346L131.084 51.2196C131.077 51.2285 131.067 51.2357 131.056 51.2408C131.045 51.246 131.034 51.249 131.022 51.2496Z" fill="#FAFAFA"/>
<path d="M137.035 55.1789C137.01 55.1782 136.987 55.1683 136.97 55.1511C136.953 55.1339 136.943 55.1107 136.942 55.0864C136.942 53.5714 135.252 53.4689 135.18 53.4664C135.166 53.4654 135.153 53.4615 135.141 53.4551C135.129 53.4486 135.118 53.4397 135.11 53.4289C135.102 53.4182 135.097 53.406 135.094 53.393C135.091 53.3801 135.092 53.3667 135.095 53.3539C135.156 53.0444 135.136 52.7241 135.034 52.4252C134.933 52.1264 134.755 51.8595 134.517 51.6514C134.431 51.5649 134.326 51.4978 134.212 51.4547C134.097 51.4116 133.975 51.3934 133.852 51.4014C133.787 51.4124 133.725 51.4373 133.67 51.4744C133.615 51.5115 133.569 51.5599 133.535 51.6164C133.524 51.6346 133.508 51.6488 133.488 51.6565C133.469 51.6642 133.447 51.665 133.427 51.6589C133.407 51.6527 133.39 51.64 133.378 51.6227C133.366 51.6055 133.361 51.5847 133.362 51.5639C133.362 51.5064 133.465 50.1589 132.28 50.0264C132.265 50.0245 132.25 50.019 132.237 50.0103C132.225 50.0016 132.214 49.9899 132.207 49.9764C132.2 49.9632 132.197 49.9487 132.197 49.9339C132.197 49.9191 132.2 49.9045 132.207 49.8914C132.207 49.8914 132.732 48.9089 132.53 48.4264C132.506 48.3697 132.47 48.3194 132.424 48.2794C132.377 48.2394 132.322 48.211 132.262 48.1964C132.25 48.1932 132.239 48.1877 132.23 48.1801C132.22 48.1726 132.212 48.1631 132.206 48.1523C132.2 48.1416 132.197 48.1297 132.196 48.1175C132.195 48.1053 132.196 48.093 132.2 48.0814C132.207 48.0582 132.223 48.0388 132.245 48.0272C132.266 48.0155 132.291 48.0126 132.315 48.0189C132.401 48.041 132.481 48.0831 132.547 48.1417C132.614 48.2004 132.667 48.2739 132.7 48.3564C132.892 48.8139 132.567 49.5714 132.427 49.8564C133.347 50.0339 133.517 50.9014 133.542 51.3314C133.624 51.273 133.718 51.2329 133.817 51.2139C133.968 51.1993 134.119 51.219 134.261 51.2714C134.402 51.3237 134.53 51.4075 134.635 51.5164C134.883 51.7354 135.073 52.0127 135.188 52.3234C135.303 52.6341 135.339 52.9684 135.292 53.2964C135.697 53.3489 137.127 53.6314 137.125 55.0914C137.124 55.1146 137.114 55.1365 137.097 55.1527C137.08 55.1689 137.058 55.1783 137.035 55.1789Z" fill="#FAFAFA"/>
<path d="M137.035 52.6846C137.011 52.6846 136.989 52.6759 136.972 52.6602C136.955 52.6444 136.944 52.6228 136.942 52.5996C136.902 52.0696 136.595 51.3846 136.207 51.2146C136.13 51.1803 136.045 51.1691 135.962 51.1824C135.879 51.1957 135.802 51.233 135.74 51.2896C135.724 51.2994 135.707 51.3046 135.688 51.3046C135.67 51.3046 135.653 51.2994 135.637 51.2896C135.621 51.2808 135.608 51.2677 135.6 51.2517C135.592 51.2357 135.588 51.2176 135.59 51.1996C135.59 51.1996 135.672 50.2621 135.25 49.8746C135.158 49.798 135.049 49.7445 134.933 49.7184C134.816 49.6923 134.695 49.6944 134.58 49.7246C134.564 49.7279 134.547 49.7269 134.532 49.7217C134.516 49.7164 134.503 49.707 134.492 49.6946C134.482 49.682 134.474 49.6668 134.471 49.6506C134.468 49.6344 134.469 49.6177 134.475 49.6021C134.56 49.3696 134.725 48.7171 134.502 48.4846C134.397 48.3771 134.205 48.3671 133.927 48.4571C133.908 48.4633 133.888 48.4633 133.869 48.457C133.85 48.4507 133.834 48.4384 133.822 48.4221C133.811 48.406 133.805 48.3868 133.805 48.3671C133.805 48.3473 133.811 48.3281 133.822 48.3121C133.977 48.1171 134.36 47.5471 134.265 47.2746C134.249 47.2369 134.224 47.2041 134.191 47.1795C134.159 47.1549 134.12 47.1394 134.08 47.1346C134.068 47.1316 134.057 47.1264 134.047 47.1192C134.037 47.1119 134.029 47.1028 134.023 47.0923C134.016 47.0819 134.012 47.0703 134.01 47.0582C134.009 47.0462 134.009 47.0339 134.012 47.0221C134.015 47.0101 134.019 46.9988 134.026 46.9888C134.033 46.9789 134.042 46.9704 134.052 46.9641C134.063 46.9577 134.074 46.9536 134.086 46.952C134.098 46.9503 134.111 46.9512 134.122 46.9546C134.192 46.9648 134.259 46.9933 134.314 47.0371C134.37 47.081 134.413 47.1387 134.44 47.2046C134.542 47.5021 134.292 47.9546 134.117 48.2046C134.207 48.1831 134.301 48.184 134.391 48.2071C134.481 48.2302 134.564 48.2748 134.632 48.3371C134.907 48.6221 134.775 49.2246 134.692 49.5071C134.814 49.4925 134.938 49.5039 135.055 49.5405C135.172 49.5771 135.28 49.6382 135.372 49.7196C135.745 50.0596 135.785 50.7196 135.78 51.0221C135.858 50.9853 135.943 50.9662 136.03 50.9662C136.116 50.9662 136.202 50.9853 136.28 51.0221C136.752 51.2296 137.08 51.9671 137.127 52.5646C137.128 52.5766 137.127 52.5887 137.123 52.6002C137.119 52.6116 137.113 52.6222 137.105 52.6313C137.097 52.6404 137.088 52.6478 137.077 52.6531C137.066 52.6584 137.054 52.6614 137.042 52.6621L137.035 52.6846Z" fill="#FAFAFA"/>
<path d="M142.42 41.3095C142.408 41.1768 142.361 41.0496 142.284 40.941C142.207 40.8325 142.102 40.7465 141.98 40.692L127.078 32.087C126.746 31.9194 126.38 31.832 126.009 31.832C125.638 31.832 125.271 31.9194 124.94 32.087L102.02 45.322C101.898 45.3765 101.794 45.4625 101.716 45.571C101.639 45.6796 101.592 45.8068 101.58 45.9395V47.097C101.592 47.2297 101.639 47.3569 101.716 47.4654C101.794 47.574 101.898 47.6599 102.02 47.7145L116.923 56.317C117.254 56.4858 117.62 56.5738 117.991 56.5738C118.363 56.5738 118.729 56.4858 119.06 56.317L141.98 43.0845C142.102 43.0299 142.207 42.944 142.284 42.8354C142.361 42.7269 142.408 42.5997 142.42 42.467V41.3095Z" fill="#37474F"/>
<path d="M116.923 55.1595L102.021 46.557C101.431 46.2145 101.431 45.662 102.021 45.322L124.941 32.087C125.272 31.9194 125.638 31.832 126.009 31.832C126.381 31.832 126.747 31.9194 127.078 32.087L141.981 40.692C142.573 41.0345 142.573 41.5845 141.981 41.927L119.061 55.1595C118.73 55.3283 118.363 55.4163 117.992 55.4163C117.62 55.4163 117.254 55.3283 116.923 55.1595Z" fill="#455A64"/>
<path opacity="0.1" d="M139.041 44.7793L132.026 53.4618L119.999 60.4068L119.996 55.7768L139.041 44.7793Z" fill="black"/>
<path opacity="0.1" d="M138.038 58.0898L132.026 66.1923L119.998 73.1398V68.5073L138.038 58.0898Z" fill="black"/>
<path opacity="0.1" d="M138.038 70.8223L132.026 78.9248L119.998 85.8723V81.2398L138.038 70.8223Z" fill="black"/>
<path d="M110.445 96.1087L92.0052 106.756L71.2402 94.7387L89.6802 84.0938L110.445 96.1087Z" fill="white"/>
<path opacity="0.5" d="M110.445 96.1087L92.0052 106.756L71.2402 94.7387L89.6802 84.0938L110.445 96.1087Z" fill="black"/>
<path d="M89.6802 69.6621V84.0946L71.2402 94.7396V80.3096L89.6802 69.6621Z" fill="white"/>
<path opacity="0.23" d="M89.6802 69.6621V84.0946L71.2402 94.7396V80.3096L89.6802 69.6621Z" fill="black"/>
<path d="M92.0052 92.3255V106.758L71.2402 94.7405V80.3105L92.0052 92.3255Z" fill="white"/>
<path opacity="0.38" d="M92.0052 92.3255V106.758L71.2402 94.7405V80.3105L92.0052 92.3255Z" fill="black"/>
<path d="M110.445 81.6771V96.1096L89.6797 84.0946V69.6621L110.445 81.6771Z" fill="white"/>
<path opacity="0.4" d="M110.445 81.6771V96.1096L89.6797 84.0946V69.6621L110.445 81.6771Z" fill="black"/>
<path d="M110.446 96.1083V81.6758L92.0059 92.3233V106.756L110.446 96.1083Z" fill="white"/>
<path opacity="0.23" d="M110.446 96.1083V81.6758L92.0059 92.3233V106.756L110.446 96.1083Z" fill="black"/>
<path d="M89.6797 69.6619L89.7047 61.6719L110.42 73.7019L110.445 81.6769L89.6797 69.6619Z" fill="white"/>
<path opacity="0.2" d="M89.6797 69.6619L89.7047 61.6719L110.42 73.7019L110.445 81.6769L89.6797 69.6619Z" fill="black"/>
<path d="M92.0059 92.3251L93.7359 85.3352L112.008 74.7852L110.446 81.6777L92.0059 92.3251Z" fill="white"/>
<path opacity="0.3" d="M92.0059 92.3251L93.7359 85.3352L112.008 74.7852L110.446 81.6777L92.0059 92.3251Z" fill="black"/>
<path d="M71.241 80.3091L69.041 73.0591L87.481 62.4141L89.681 69.6616L71.241 80.3091Z" fill="white"/>
<path opacity="0.1" d="M71.241 80.3091L69.041 73.0591L87.481 62.4141L89.681 69.6616L71.241 80.3091Z" fill="black"/>
<path d="M71.2404 80.3089L66.9004 74.3164L87.6679 86.3314L92.0054 92.3239L71.2404 80.3089Z" fill="white"/>
<path opacity="0.45" d="M71.2404 80.3089L66.9004 74.3164L87.6679 86.3314L92.0054 92.3239L71.2404 80.3089Z" fill="black"/>
<g opacity="0.7">
<path d="M97.4334 102.465C97.4033 102.465 97.3744 102.453 97.3529 102.432C97.3314 102.411 97.319 102.382 97.3184 102.352V99.8123C97.319 99.782 97.3313 99.7531 97.3527 99.7317C97.3742 99.7102 97.4031 99.6979 97.4334 99.6973C97.4634 99.6979 97.492 99.7103 97.5131 99.7318C97.5341 99.7533 97.5459 99.7822 97.5459 99.8123V102.352C97.5459 102.382 97.534 102.411 97.5129 102.432C97.4918 102.453 97.4632 102.465 97.4334 102.465Z" fill="white"/>
<path d="M97.1016 100.692C97.0866 100.694 97.0715 100.694 97.0566 100.692C97.0293 100.679 97.0078 100.657 96.9967 100.629C96.9855 100.601 96.9855 100.57 96.9966 100.542L97.4016 99.6094L97.8516 100.129C97.8677 100.153 97.8746 100.181 97.8711 100.209C97.8676 100.237 97.8538 100.263 97.8324 100.282C97.8111 100.3 97.7836 100.31 97.7553 100.31C97.727 100.309 97.6999 100.299 97.6791 100.279L97.4666 100.029L97.2166 100.629C97.2057 100.65 97.189 100.667 97.1686 100.678C97.1481 100.689 97.1248 100.694 97.1016 100.692Z" fill="white"/>
<path d="M98.4816 101.867C98.4516 101.866 98.423 101.854 98.4019 101.832C98.3809 101.811 98.3691 101.782 98.3691 101.752V99.2141C98.3691 99.1842 98.381 99.1556 98.4021 99.1345C98.4232 99.1134 98.4518 99.1016 98.4816 99.1016C98.5115 99.1016 98.5401 99.1134 98.5612 99.1345C98.5823 99.1556 98.5941 99.1842 98.5941 99.2141V101.749C98.5945 101.764 98.5918 101.779 98.5864 101.793C98.5809 101.807 98.5727 101.82 98.5622 101.831C98.5518 101.842 98.5393 101.851 98.5255 101.857C98.5116 101.863 98.4967 101.866 98.4816 101.867Z" fill="white"/>
<path d="M98.1498 100.095C98.1349 100.097 98.1197 100.097 98.1048 100.095C98.0911 100.089 98.0787 100.08 98.0683 100.07C98.058 100.059 98.0499 100.046 98.0446 100.032C98.0392 100.018 98.0367 100.003 98.0372 99.9883C98.0376 99.9733 98.0411 99.9586 98.0473 99.945L98.4498 99L98.8998 99.5175C98.9206 99.539 98.9322 99.5676 98.9322 99.5975C98.9322 99.6274 98.9206 99.656 98.8998 99.6775C98.8893 99.6881 98.8769 99.6965 98.8632 99.7022C98.8494 99.708 98.8347 99.7109 98.8198 99.7109C98.8049 99.7109 98.7902 99.708 98.7765 99.7022C98.7627 99.6965 98.7503 99.6881 98.7398 99.6775L98.5273 99.4275L98.2773 100.027C98.2669 100.052 98.2487 100.071 98.2255 100.084C98.2023 100.096 98.1756 100.1 98.1498 100.095Z" fill="white"/>
</g>
<g opacity="0.7">
<path d="M94.415 104.188C94.3722 104.189 94.3301 104.178 94.2925 104.158C94.2473 104.129 94.2106 104.089 94.1865 104.041C94.1623 103.993 94.1514 103.939 94.155 103.886V103.573C94.1556 103.543 94.168 103.514 94.1895 103.493C94.211 103.472 94.2399 103.461 94.27 103.461C94.2998 103.461 94.3284 103.472 94.3495 103.494C94.3706 103.515 94.3825 103.543 94.3825 103.573V103.886C94.3825 103.931 94.3825 103.956 94.405 103.961C94.4275 103.966 94.44 103.961 94.4775 103.941C94.5478 103.876 94.6033 103.796 94.6399 103.708C94.6766 103.619 94.6937 103.524 94.69 103.428V102.128C94.69 102.098 94.7018 102.07 94.7229 102.049C94.744 102.027 94.7726 102.016 94.8025 102.016C94.8323 102.016 94.8609 102.027 94.882 102.049C94.9031 102.07 94.915 102.098 94.915 102.128V103.428C94.9205 103.563 94.8943 103.697 94.8382 103.82C94.7822 103.943 94.698 104.051 94.5925 104.136C94.539 104.169 94.4777 104.187 94.415 104.188Z" fill="white"/>
<path d="M93.2227 103.14V102.945C93.2524 102.445 93.3987 101.958 93.6501 101.524C93.9014 101.09 94.2507 100.72 94.6702 100.445C95.0802 100.21 95.4702 100.175 95.7702 100.35C95.9302 100.46 96.0577 100.611 96.1395 100.787C96.2214 100.963 96.2544 101.157 96.2352 101.35V101.415L93.2227 103.14ZM95.3502 100.455C95.15 100.465 94.9555 100.525 94.7852 100.63C94.4257 100.867 94.1214 101.178 93.8928 101.542C93.6641 101.907 93.5166 102.316 93.4602 102.743L96.0027 101.273C96.0135 101.128 95.9868 100.983 95.925 100.852C95.8632 100.72 95.7686 100.607 95.6502 100.523C95.5578 100.474 95.4543 100.451 95.3502 100.455Z" fill="white"/>
</g>
<path opacity="0.7" d="M66.9004 74.3164L87.6679 86.3314L92.0054 92.3239L87.4379 86.5439L66.9004 74.3164Z" fill="white"/>
<path opacity="0.7" d="M110.446 81.6758L92.0059 92.3233V106.756L92.3509 92.6133L110.446 81.6758Z" fill="white"/>
<path d="M83.3848 75.9024C85.2873 75.6274 87.0248 74.4024 88.1348 72.8624C88.6525 72.1429 89.0338 71.3345 89.2598 70.4774C89.4999 69.6759 89.5394 68.8277 89.3748 68.0074C89.0323 66.6349 87.7623 65.8224 86.4198 65.6524C85.7386 65.5628 85.0459 65.6303 84.3948 65.8499C83.7197 66.0816 83.134 66.5187 82.7198 67.0999C82.4601 67.4096 82.2967 67.7885 82.2498 68.1899C82.2458 68.3471 82.3012 68.5001 82.405 68.6183C82.5088 68.7364 82.6534 68.8111 82.8098 68.8274C83.2124 68.8613 83.6147 68.7592 83.9523 68.5374C84.364 68.3065 84.7267 67.9974 85.0198 67.6274C85.6486 66.8514 86.1192 65.9595 86.4048 65.0024C86.6052 64.1811 86.6052 63.3237 86.4048 62.5024C86.2526 61.6433 85.8599 60.8449 85.2723 60.1999C84.5987 59.5874 83.7439 59.2109 82.8373 59.1274C81.935 59.0034 81.0162 59.089 80.1523 59.3774C79.7728 59.4925 79.4213 59.6848 79.1198 59.9424C78.9048 60.1424 78.6598 60.4724 78.7473 60.7974C78.8348 61.1224 79.3098 61.2674 79.6323 61.2249C80.1096 61.1355 80.5468 60.8985 80.8823 60.5474C81.2562 60.1793 81.5738 59.7581 81.8248 59.2974C82.0113 58.9663 82.1087 58.5924 82.1073 58.2124C82.0748 56.6274 80.3223 55.6024 78.9498 55.3124C78.5793 55.235 78.1998 55.2098 77.8223 55.2374C77.6948 55.2374 77.7723 55.4474 77.8748 55.4399C78.6134 55.4064 79.3474 55.5721 79.9998 55.9199C80.6435 56.2158 81.1841 56.6972 81.5523 57.3024C81.7164 57.6008 81.7974 57.9378 81.7868 58.2781C81.7763 58.6185 81.6746 58.9498 81.4923 59.2374C81.2475 59.6638 80.9427 60.0527 80.5873 60.3924C80.2898 60.6624 79.8373 60.9749 79.4198 60.9449C79.3509 60.9448 79.2834 60.9252 79.225 60.8885C79.1667 60.8518 79.1198 60.7995 79.0898 60.7374C79.0772 60.6553 79.084 60.5714 79.1096 60.4924C79.1352 60.4134 79.1789 60.3415 79.2373 60.2824C79.4581 60.0447 79.7311 59.8615 80.0348 59.7474C80.7848 59.4356 81.597 59.3021 82.4073 59.3574C83.2424 59.3725 84.0546 59.6334 84.7423 60.1074C85.3414 60.6049 85.7669 61.2798 85.9573 62.0349C86.1985 62.802 86.2735 63.6116 86.1773 64.4099C86.0288 65.2132 85.7202 65.9784 85.2698 66.6599C84.8073 67.4249 84.2273 68.1599 83.3573 68.4599C83.1423 68.5374 82.6923 68.6499 82.6073 68.3374C82.5223 68.0249 82.7673 67.6399 82.9248 67.3974C83.2731 66.8493 83.7808 66.4209 84.3798 66.1699C84.9578 65.9382 85.5817 65.8441 86.2023 65.8949C87.3798 65.9824 88.5748 66.5974 88.9848 67.7674C89.1905 68.4666 89.2129 69.207 89.0498 69.9174C88.9027 70.6961 88.6228 71.4436 88.2223 72.1274C87.3608 73.5802 86.0561 74.7185 84.4998 75.3749C84.1298 75.5349 83.7498 75.6699 83.3623 75.7949C83.3223 75.8099 83.3398 75.9099 83.3848 75.9024Z" fill="#E0E0E0"/>
<path d="M75.437 54.1986C74.437 54.1261 73.0595 54.9136 73.5495 55.4886C74.0395 56.0636 75.3395 55.1336 75.3395 55.1336C75.3395 55.1336 75.217 56.2961 75.642 56.4286C76.067 56.5611 76.642 55.4511 76.217 54.7411C76.4219 54.8219 76.644 54.8496 76.8625 54.8217C77.0811 54.7937 77.289 54.7109 77.467 54.5811C78.072 54.1361 77.432 53.7161 76.5795 53.7911C76.5795 53.7911 77.1895 51.7911 75.957 52.1736C75.3395 52.3611 75.122 53.0836 75.437 54.1986Z" fill="white"/>
<path opacity="0.65" d="M75.437 54.1986C74.437 54.1261 73.0595 54.9136 73.5495 55.4886C74.0395 56.0636 75.3395 55.1336 75.3395 55.1336C75.3395 55.1336 75.217 56.2961 75.642 56.4286C76.067 56.5611 76.642 55.4511 76.217 54.7411C76.4219 54.8219 76.644 54.8496 76.8625 54.8217C77.0811 54.7937 77.289 54.7109 77.467 54.5811C78.072 54.1361 77.432 53.7161 76.5795 53.7911C76.5795 53.7911 77.1895 51.7911 75.957 52.1736C75.3395 52.3611 75.122 53.0836 75.437 54.1986Z" fill="white"/>
<path d="M76.3676 54.6233C76.3122 54.5691 76.2538 54.5182 76.1926 54.4708C76.1051 54.4033 76.0126 54.3383 75.9251 54.2733C75.8399 54.2114 75.7505 54.1554 75.6576 54.1058C75.6041 54.0761 75.549 54.0494 75.4926 54.0258C75.4147 53.9892 75.328 53.9754 75.2426 53.9858C75.2202 53.9864 75.1984 53.9931 75.1794 54.005C75.1605 54.017 75.1451 54.0338 75.1349 54.0537C75.1246 54.0736 75.12 54.096 75.1213 54.1183C75.1227 54.1407 75.13 54.1623 75.1426 54.1808C75.2113 54.2553 75.2971 54.3119 75.3926 54.3458L75.5276 54.4183C75.6201 54.4733 75.7026 54.5358 75.7776 54.5983C75.8526 54.6608 75.9526 54.7208 76.0276 54.7833C76.1565 54.8879 76.3007 54.9722 76.4551 55.0333C76.462 55.037 76.4697 55.039 76.4776 55.039C76.4854 55.039 76.4932 55.037 76.5001 55.0333C76.6276 54.9333 76.4401 54.6958 76.3676 54.6233Z" fill="#455A64"/>
</svg>
