<svg width="12" height="23" viewBox="0 0 12 23" fill="none" xmlns="http://www.w3.org/2000/svg">
<mask id="path-1-outside-1_1_7983" maskUnits="userSpaceOnUse" x="0" y="-0.298828" width="12" height="24" fill="black">
<rect fill="white" y="-0.298828" width="12" height="24"/>
<path d="M10.1557 4.80298C9.42072 3.713 8.30455 2.97514 7.0133 2.72466C6.91542 2.70565 6.81735 2.71025 6.71928 2.69735V1.42031C6.71928 1.02329 6.39716 0.701172 6.00014 0.701172C5.60311 0.701172 5.28099 1.02329 5.28099 1.42031V2.71763C4.59479 2.83422 3.93037 3.08509 3.33051 3.49018C2.23212 4.2318 1.4905 5.34279 1.24335 6.62002C0.746146 9.18571 2.38009 11.6849 4.96542 12.3094C5.35776 12.404 5.7454 12.4415 6.12093 12.478C6.68556 12.5323 7.21838 12.5833 7.63505 12.8277C8.5368 13.3553 9.16697 14.2866 9.3224 15.318C9.60704 17.2184 8.29331 18.9961 6.3934 19.2812C4.48694 19.5654 2.71623 18.2526 2.42973 16.3527C2.37075 15.9604 1.99992 15.6869 1.61227 15.7487C1.21901 15.8077 0.948397 16.1743 1.00831 16.5671C1.34371 18.7999 3.14223 20.4422 5.28099 20.705V21.9747C5.28099 22.3717 5.60311 22.6938 6.00014 22.6938C6.39716 22.6938 6.71928 22.3717 6.71928 21.9747V20.6753C7.97203 20.4573 9.07696 19.7872 9.83553 18.7611C10.6165 17.7034 10.9395 16.4051 10.7448 15.1045C10.5257 13.647 9.63514 12.3319 8.36167 11.5865C7.67156 11.182 6.92153 11.1099 6.25951 11.0462C5.91868 11.0134 5.59656 10.9821 5.30254 10.9114C3.46723 10.468 2.30425 8.70297 2.65539 6.89341C3.01494 5.03939 4.8849 3.77809 6.73985 4.13671C7.65377 4.3137 8.44313 4.83616 8.96374 5.60729C9.48434 6.37887 9.6735 7.30681 9.49656 8.22073C9.42072 8.61028 9.6754 8.98761 10.0659 9.06345C10.4498 9.13787 10.8328 8.88509 10.9086 8.49413C11.1586 7.20336 10.8917 5.89242 10.1557 4.80298Z"/>
</mask>
<path d="M10.1557 4.80298C9.42072 3.713 8.30455 2.97514 7.0133 2.72466C6.91542 2.70565 6.81735 2.71025 6.71928 2.69735V1.42031C6.71928 1.02329 6.39716 0.701172 6.00014 0.701172C5.60311 0.701172 5.28099 1.02329 5.28099 1.42031V2.71763C4.59479 2.83422 3.93037 3.08509 3.33051 3.49018C2.23212 4.2318 1.4905 5.34279 1.24335 6.62002C0.746146 9.18571 2.38009 11.6849 4.96542 12.3094C5.35776 12.404 5.7454 12.4415 6.12093 12.478C6.68556 12.5323 7.21838 12.5833 7.63505 12.8277C8.5368 13.3553 9.16697 14.2866 9.3224 15.318C9.60704 17.2184 8.29331 18.9961 6.3934 19.2812C4.48694 19.5654 2.71623 18.2526 2.42973 16.3527C2.37075 15.9604 1.99992 15.6869 1.61227 15.7487C1.21901 15.8077 0.948397 16.1743 1.00831 16.5671C1.34371 18.7999 3.14223 20.4422 5.28099 20.705V21.9747C5.28099 22.3717 5.60311 22.6938 6.00014 22.6938C6.39716 22.6938 6.71928 22.3717 6.71928 21.9747V20.6753C7.97203 20.4573 9.07696 19.7872 9.83553 18.7611C10.6165 17.7034 10.9395 16.4051 10.7448 15.1045C10.5257 13.647 9.63514 12.3319 8.36167 11.5865C7.67156 11.182 6.92153 11.1099 6.25951 11.0462C5.91868 11.0134 5.59656 10.9821 5.30254 10.9114C3.46723 10.468 2.30425 8.70297 2.65539 6.89341C3.01494 5.03939 4.8849 3.77809 6.73985 4.13671C7.65377 4.3137 8.44313 4.83616 8.96374 5.60729C9.48434 6.37887 9.6735 7.30681 9.49656 8.22073C9.42072 8.61028 9.6754 8.98761 10.0659 9.06345C10.4498 9.13787 10.8328 8.88509 10.9086 8.49413C11.1586 7.20336 10.8917 5.89242 10.1557 4.80298Z" fill="#7C7C7C"/>
<path d="M10.1557 4.80298C9.42072 3.713 8.30455 2.97514 7.0133 2.72466C6.91542 2.70565 6.81735 2.71025 6.71928 2.69735V1.42031C6.71928 1.02329 6.39716 0.701172 6.00014 0.701172C5.60311 0.701172 5.28099 1.02329 5.28099 1.42031V2.71763C4.59479 2.83422 3.93037 3.08509 3.33051 3.49018C2.23212 4.2318 1.4905 5.34279 1.24335 6.62002C0.746146 9.18571 2.38009 11.6849 4.96542 12.3094C5.35776 12.404 5.7454 12.4415 6.12093 12.478C6.68556 12.5323 7.21838 12.5833 7.63505 12.8277C8.5368 13.3553 9.16697 14.2866 9.3224 15.318C9.60704 17.2184 8.29331 18.9961 6.3934 19.2812C4.48694 19.5654 2.71623 18.2526 2.42973 16.3527C2.37075 15.9604 1.99992 15.6869 1.61227 15.7487C1.21901 15.8077 0.948397 16.1743 1.00831 16.5671C1.34371 18.7999 3.14223 20.4422 5.28099 20.705V21.9747C5.28099 22.3717 5.60311 22.6938 6.00014 22.6938C6.39716 22.6938 6.71928 22.3717 6.71928 21.9747V20.6753C7.97203 20.4573 9.07696 19.7872 9.83553 18.7611C10.6165 17.7034 10.9395 16.4051 10.7448 15.1045C10.5257 13.647 9.63514 12.3319 8.36167 11.5865C7.67156 11.182 6.92153 11.1099 6.25951 11.0462C5.91868 11.0134 5.59656 10.9821 5.30254 10.9114C3.46723 10.468 2.30425 8.70297 2.65539 6.89341C3.01494 5.03939 4.8849 3.77809 6.73985 4.13671C7.65377 4.3137 8.44313 4.83616 8.96374 5.60729C9.48434 6.37887 9.6735 7.30681 9.49656 8.22073C9.42072 8.61028 9.6754 8.98761 10.0659 9.06345C10.4498 9.13787 10.8328 8.88509 10.9086 8.49413C11.1586 7.20336 10.8917 5.89242 10.1557 4.80298Z" stroke="#7C7C7C" stroke-width="0.6" mask="url(#path-1-outside-1_1_7983)"/>
</svg>
