<svg width="20" height="21" viewBox="0 0 20 21" fill="none" xmlns="http://www.w3.org/2000/svg">
<g id="Group 6">
<path id="Vector" d="M19.0701 11.6675L17.9867 11.0008C18.0144 10.6674 18.0422 10.3618 18.0422 10.0285C18.0422 9.97291 18.0422 9.94513 18.0422 9.88957L19.1812 9.33398C19.9035 8.97284 20.209 8.11167 19.8479 7.3894L18.1811 3.94472C17.8478 3.25022 16.931 2.91687 16.2365 3.278L15.0976 3.8336C14.5698 3.38912 13.9864 3.02799 13.3752 2.75019V1.47232C13.3752 0.666713 12.7085 0 11.9029 0H8.06931C7.2637 0 6.59699 0.666713 6.59699 1.47232V2.75019C6.23585 2.91687 5.87472 3.11133 5.54136 3.33356L4.45795 2.66685C3.79124 2.25015 2.84673 2.47239 2.45781 3.1391L0.429897 6.41711C0.235439 6.75047 0.1521 7.13938 0.263219 7.5283C0.346558 7.91721 0.596575 8.22279 0.929932 8.44503L2.01334 9.11174C1.98556 9.44509 1.95778 9.75067 1.95778 10.084C1.95778 10.1396 1.95778 10.1674 1.95778 10.2229L0.818813 10.7785C0.0965411 11.1397 -0.209036 12.0008 0.1521 12.7231L1.81888 16.1678C2.15224 16.8623 3.06897 17.1956 3.76346 16.8345L4.90243 16.2789C5.43024 16.7234 6.01361 17.0845 6.62477 17.3623V18.6402C6.62477 19.4458 7.29148 20.1125 8.09709 20.1125H11.9307C12.7363 20.1125 13.403 19.4458 13.403 18.6402V17.3623C13.7641 17.1956 14.1253 17.0012 14.4586 16.7789L15.542 17.4456C15.7643 17.5845 16.0421 17.6679 16.3199 17.6679C16.8199 17.6679 17.2922 17.4179 17.57 16.9734L19.5979 13.6954C19.7923 13.362 19.8757 12.9731 19.7646 12.5842C19.6257 12.1953 19.4034 11.8897 19.0701 11.6675ZM16.0699 9.41732C16.0976 9.63955 16.0976 9.83401 16.0976 10.0562C16.0976 10.3896 16.0699 10.723 16.0143 11.0285C15.931 11.6119 16.181 12.1953 16.681 12.5009L17.6255 13.0842L16.1254 15.5288L15.1809 14.9455C14.6809 14.6399 14.0419 14.6677 13.5697 15.001C13.1808 15.2788 12.7641 15.5011 12.3474 15.6955C11.7918 15.9178 11.4307 16.4456 11.4307 17.0289V18.1401H8.56935V17.0289C8.56935 16.4456 8.20821 15.9178 7.65262 15.6955C7.01368 15.4455 6.43031 15.0566 5.93028 14.6121C5.4858 14.2232 4.84687 14.1399 4.31905 14.3899L3.31899 14.8621L2.0689 12.2786L3.95792 11.3619L3.87458 10.6952C3.8468 10.4729 3.8468 10.2785 3.8468 10.0562C3.8468 9.72289 3.87458 9.38953 3.93014 9.08396C4.01348 8.50059 3.76346 7.91721 3.26343 7.61164L2.31892 7.02826L3.81902 4.58365L4.76353 5.16702C5.26356 5.4726 5.9025 5.44482 6.37475 5.11146C6.76367 4.83367 7.18036 4.61143 7.59706 4.41697C8.15265 4.19473 8.51379 3.66692 8.51379 3.08355V1.97236H11.3751V3.08355C11.3751 3.66692 11.7362 4.19473 12.2918 4.41697C12.9308 4.66699 13.5141 5.0559 14.0142 5.50038C14.4586 5.88929 15.0976 5.97263 15.6254 5.72262L16.6255 5.25036L17.8755 7.83387L15.9865 8.7506L16.0699 9.41732Z" fill="#7C7C7C"/>
<path id="Vector_2" d="M9.98554 5.75C7.62427 5.75 5.67969 7.6668 5.67969 10.0559C5.67969 12.4449 7.59649 14.3617 9.98554 14.3617C12.3746 14.3617 14.2914 12.4171 14.2914 10.0281C14.2914 7.63902 12.3746 5.75 9.98554 5.75ZM9.98554 12.3893C8.67989 12.3893 7.62427 11.3337 7.62427 10.0281C7.62427 8.72243 8.67989 7.6668 9.98554 7.6668C11.2912 7.6668 12.3468 8.72243 12.3468 10.0281C12.3468 11.3337 11.2912 12.3893 9.98554 12.3893Z" fill="#7C7C7C"/>
</g>
</svg>
